<?xml version="1.0" encoding="UTF-8" standalone="no"?>
<!-- Created with Inkscape (http://www.inkscape.org/) -->

<svg
   width="420mm"
   height="594mm"
   viewBox="0 0 420 594"
   version="1.1"
   id="svg5"
   xml:space="preserve"
   inkscape:version="1.3.1 (9b9bdc1480, 2023-11-25, custom)"
   sodipodi:docname="banner.svg"
   xmlns:inkscape="http://www.inkscape.org/namespaces/inkscape"
   xmlns:sodipodi="http://sodipodi.sourceforge.net/DTD/sodipodi-0.dtd"
   xmlns="http://www.w3.org/2000/svg"
   xmlns:svg="http://www.w3.org/2000/svg"><sodipodi:namedview
     id="namedview7"
     pagecolor="#ffffff"
     bordercolor="#666666"
     borderopacity="1.0"
     inkscape:showpageshadow="2"
     inkscape:pageopacity="0.0"
     inkscape:pagecheckerboard="0"
     inkscape:deskcolor="#d1d1d1"
     inkscape:document-units="mm"
     showgrid="false"
     inkscape:zoom="0.5"
     inkscape:cx="538"
     inkscape:cy="716"
     inkscape:window-width="1920"
     inkscape:window-height="1016"
     inkscape:window-x="0"
     inkscape:window-y="0"
     inkscape:window-maximized="1"
     inkscape:current-layer="g1242" /><defs
     id="defs2"><rect
       x="82.137833"
       y="359.66415"
       width="976.94244"
       height="114.49516"
       id="rect924" /><clipPath
       clipPathUnits="userSpaceOnUse"
       id="clipPath701"><g
         id="g705"><path
           d="M -76.134218,-0.35069718 H 369.55094 V 209.5064 H -76.134218 Z"
           id="path703"
           style="stroke-width:0.445685" /></g></clipPath><clipPath
       clipPathUnits="userSpaceOnUse"
       id="clipPath707"><g
         id="g711"><path
           d="M -76.134218,-0.35069718 H 369.55094 V 209.5064 H -76.134218 Z"
           id="path709"
           style="stroke-width:0.445685" /></g></clipPath><clipPath
       clipPathUnits="userSpaceOnUse"
       id="clipPath713"><g
         id="g717"><path
           d="M -76.134218,-0.35069718 H 369.55094 V 209.5064 H -76.134218 Z"
           id="path715"
           style="stroke-width:0.445685" /></g></clipPath><clipPath
       clipPathUnits="userSpaceOnUse"
       id="clipPath719"><g
         id="g723"><path
           d="M -76.134218,-0.35069718 H 369.55094 V 209.5064 H -76.134218 Z"
           id="path721"
           style="stroke-width:0.445685" /></g></clipPath><clipPath
       clipPathUnits="userSpaceOnUse"
       id="clipPath725"><g
         id="g729"><path
           d="M -76.134218,-0.35069718 H 369.55094 V 209.5064 H -76.134218 Z"
           id="path727"
           style="stroke-width:0.445685" /></g></clipPath><clipPath
       clipPathUnits="userSpaceOnUse"
       id="clipPath731"><g
         id="g735"><path
           d="M -76.134218,-0.35069718 H 369.55094 V 209.5064 H -76.134218 Z"
           id="path733"
           style="stroke-width:0.445685" /></g></clipPath><clipPath
       clipPathUnits="userSpaceOnUse"
       id="clipPath737"><g
         id="g741"><path
           d="M -76.134218,-0.35069718 H 369.55094 V 209.5064 H -76.134218 Z"
           id="path739"
           style="stroke-width:0.445685" /></g></clipPath><clipPath
       clipPathUnits="userSpaceOnUse"
       id="clipPath743"><g
         id="g747"><path
           d="M -76.134218,-0.35069718 H 369.55094 V 209.5064 H -76.134218 Z"
           id="path745"
           style="stroke-width:0.445685" /></g></clipPath><clipPath
       clipPathUnits="userSpaceOnUse"
       id="clipPath749"><g
         id="g753"><path
           d="M -76.134218,-0.35069718 H 369.55094 V 209.5064 H -76.134218 Z"
           id="path751"
           style="stroke-width:0.445685" /></g></clipPath><clipPath
       clipPathUnits="userSpaceOnUse"
       id="clipPath755"><g
         id="g759"><path
           d="M -76.134218,-0.35069718 H 369.55094 V 209.5064 H -76.134218 Z"
           id="path757"
           style="stroke-width:0.445685" /></g></clipPath><clipPath
       clipPathUnits="userSpaceOnUse"
       id="clipPath761"><g
         id="g765"><path
           d="M -76.134218,-0.35069718 H 369.55094 V 209.5064 H -76.134218 Z"
           id="path763"
           style="stroke-width:0.445685" /></g></clipPath><clipPath
       clipPathUnits="userSpaceOnUse"
       id="clipPath767"><g
         id="g771"><path
           d="M -76.134218,-0.35069718 H 369.55094 V 209.5064 H -76.134218 Z"
           id="path769"
           style="stroke-width:0.445685" /></g></clipPath><clipPath
       clipPathUnits="userSpaceOnUse"
       id="clipPath773"><g
         id="g777"><path
           d="M -76.134218,-0.35069718 H 369.55094 V 209.5064 H -76.134218 Z"
           id="path775"
           style="stroke-width:0.445685" /></g></clipPath><clipPath
       clipPathUnits="userSpaceOnUse"
       id="clipPath779"><g
         id="g783"><path
           d="M -76.134218,-0.35069718 H 369.55094 V 209.5064 H -76.134218 Z"
           id="path781"
           style="stroke-width:0.445685" /></g></clipPath><clipPath
       clipPathUnits="userSpaceOnUse"
       id="clipPath785"><g
         id="g789"><path
           d="M -76.134218,-0.35069718 H 369.55094 V 209.5064 H -76.134218 Z"
           id="path787"
           style="stroke-width:0.445685" /></g></clipPath><clipPath
       clipPathUnits="userSpaceOnUse"
       id="clipPath791"><g
         id="g795"><path
           d="M -76.134218,-0.35069718 H 369.55094 V 209.5064 H -76.134218 Z"
           id="path793"
           style="stroke-width:0.445685" /></g></clipPath><clipPath
       clipPathUnits="userSpaceOnUse"
       id="clipPath797"><g
         id="g801"><path
           d="M -76.134218,-0.35069718 H 369.55094 V 209.5064 H -76.134218 Z"
           id="path799"
           style="stroke-width:0.445685" /></g></clipPath><clipPath
       clipPathUnits="userSpaceOnUse"
       id="clipPath803"><g
         id="g807"><path
           d="M -76.134218,-0.35069718 H 369.55094 V 209.5064 H -76.134218 Z"
           id="path805"
           style="stroke-width:0.445685" /></g></clipPath><clipPath
       clipPathUnits="userSpaceOnUse"
       id="clipPath809"><g
         id="g813"><path
           d="M -76.134218,-0.35069718 H 369.55094 V 209.5064 H -76.134218 Z"
           id="path811"
           style="stroke-width:0.445685" /></g></clipPath><clipPath
       clipPathUnits="userSpaceOnUse"
       id="clipPath815"><g
         id="g819"><path
           d="M -76.134218,-0.35069718 H 369.55094 V 209.5064 H -76.134218 Z"
           id="path817"
           style="stroke-width:0.445685" /></g></clipPath><clipPath
       clipPathUnits="userSpaceOnUse"
       id="clipPath821"><g
         id="g825"><path
           d="M -76.134218,-0.35069718 H 369.55094 V 209.5064 H -76.134218 Z"
           id="path823"
           style="stroke-width:0.445685" /></g></clipPath><clipPath
       clipPathUnits="userSpaceOnUse"
       id="clipPath827"><g
         id="g831"><path
           d="M -76.134218,-0.35069718 H 369.55094 V 209.5064 H -76.134218 Z"
           id="path829"
           style="stroke-width:0.445685" /></g></clipPath><clipPath
       clipPathUnits="userSpaceOnUse"
       id="clipPath833"><g
         id="g837"><path
           d="M -76.134218,-0.35069718 H 369.55094 V 209.5064 H -76.134218 Z"
           id="path835"
           style="stroke-width:0.445685" /></g></clipPath><clipPath
       clipPathUnits="userSpaceOnUse"
       id="clipPath839"><g
         id="g843"><path
           d="M -76.134218,-0.35069718 H 369.55094 V 209.5064 H -76.134218 Z"
           id="path841"
           style="stroke-width:0.445685" /></g></clipPath><clipPath
       clipPathUnits="userSpaceOnUse"
       id="clipPath845"><g
         id="g849"><path
           d="M -76.134218,-0.35069718 H 369.55094 V 209.5064 H -76.134218 Z"
           id="path847"
           style="stroke-width:0.445685" /></g></clipPath><clipPath
       clipPathUnits="userSpaceOnUse"
       id="clipPath851"><g
         id="g855"><path
           d="M -76.134218,-0.35069718 H 369.55094 V 209.5064 H -76.134218 Z"
           id="path853"
           style="stroke-width:0.445685" /></g></clipPath><clipPath
       clipPathUnits="userSpaceOnUse"
       id="clipPath857"><g
         id="g861"><path
           d="M -76.134218,-0.35069718 H 369.55094 V 209.5064 H -76.134218 Z"
           id="path859"
           style="stroke-width:0.445685" /></g></clipPath><clipPath
       clipPathUnits="userSpaceOnUse"
       id="clipPath863"><g
         id="g867"><path
           d="M -76.134218,-0.35069718 H 369.55094 V 209.5064 H -76.134218 Z"
           id="path865"
           style="stroke-width:0.445685" /></g></clipPath><clipPath
       clipPathUnits="userSpaceOnUse"
       id="clipPath869"><g
         id="g873"><path
           d="M -76.134218,-0.35069718 H 369.55094 V 209.5064 H -76.134218 Z"
           id="path871"
           style="stroke-width:0.445685" /></g></clipPath><clipPath
       clipPathUnits="userSpaceOnUse"
       id="clipPath875"><g
         id="g879"><path
           d="M -76.134218,-0.35069718 H 369.55094 V 209.5064 H -76.134218 Z"
           id="path877"
           style="stroke-width:0.445685" /></g></clipPath><clipPath
       clipPathUnits="userSpaceOnUse"
       id="clipPath881"><g
         id="g885"><path
           d="M -76.134218,-0.35069718 H 369.55094 V 209.5064 H -76.134218 Z"
           id="path883"
           style="stroke-width:0.445685" /></g></clipPath><clipPath
       clipPathUnits="userSpaceOnUse"
       id="clipPath887"><g
         id="g891"><path
           d="M -76.134218,-0.35069718 H 369.55094 V 209.5064 H -76.134218 Z"
           id="path889"
           style="stroke-width:0.445685" /></g></clipPath><clipPath
       clipPathUnits="userSpaceOnUse"
       id="clipPath893"><g
         id="g897"><path
           d="M -76.134218,-0.35069718 H 369.55094 V 209.5064 H -76.134218 Z"
           id="path895"
           style="stroke-width:0.445685" /></g></clipPath><clipPath
       clipPathUnits="userSpaceOnUse"
       id="clipPath899"><g
         id="g903"><path
           d="M -76.134218,-0.35069718 H 369.55094 V 209.5064 H -76.134218 Z"
           id="path901"
           style="stroke-width:0.445685" /></g></clipPath><clipPath
       clipPathUnits="userSpaceOnUse"
       id="clipPath905"><g
         id="g909"><path
           d="M -76.134218,-0.35069718 H 369.55094 V 209.5064 H -76.134218 Z"
           id="path907"
           style="stroke-width:0.445685" /></g></clipPath><clipPath
       clipPathUnits="userSpaceOnUse"
       id="clipPath911"><g
         id="g915"><path
           d="M -76.134218,-0.35069718 H 369.55094 V 209.5064 H -76.134218 Z"
           id="path913"
           style="stroke-width:0.445685" /></g></clipPath><clipPath
       clipPathUnits="userSpaceOnUse"
       id="clipPath917"><g
         id="g921"><path
           d="M -76.134218,-0.35069718 H 369.55094 V 209.5064 H -76.134218 Z"
           id="path919"
           style="stroke-width:0.445685" /></g></clipPath><clipPath
       clipPathUnits="userSpaceOnUse"
       id="clipPath923"><g
         id="g927"><path
           d="M -76.134218,-0.35069718 H 369.55094 V 209.5064 H -76.134218 Z"
           id="path925"
           style="stroke-width:0.445685" /></g></clipPath><clipPath
       clipPathUnits="userSpaceOnUse"
       id="clipPath929"><g
         id="g933"><path
           d="M -76.134218,-0.35069718 H 369.55094 V 209.5064 H -76.134218 Z"
           id="path931"
           style="stroke-width:0.445685" /></g></clipPath><clipPath
       clipPathUnits="userSpaceOnUse"
       id="clipPath935"><g
         id="g939"><path
           d="M -76.134218,-0.35069718 H 369.55094 V 209.5064 H -76.134218 Z"
           id="path937"
           style="stroke-width:0.445685" /></g></clipPath><clipPath
       clipPathUnits="userSpaceOnUse"
       id="clipPath941"><g
         id="g945"><path
           d="M -76.134218,-0.35069718 H 369.55094 V 209.5064 H -76.134218 Z"
           id="path943"
           style="stroke-width:0.445685" /></g></clipPath><clipPath
       clipPathUnits="userSpaceOnUse"
       id="clipPath947"><g
         id="g951"><path
           d="M -76.134218,-0.35069718 H 369.55094 V 209.5064 H -76.134218 Z"
           id="path949"
           style="stroke-width:0.445685" /></g></clipPath><clipPath
       clipPathUnits="userSpaceOnUse"
       id="clipPath953"><g
         id="g957"><path
           d="M -76.134218,-0.35069718 H 369.55094 V 209.5064 H -76.134218 Z"
           id="path955"
           style="stroke-width:0.445685" /></g></clipPath><clipPath
       clipPathUnits="userSpaceOnUse"
       id="clipPath959"><g
         id="g963"><path
           d="M -76.134218,-0.35069718 H 369.55094 V 209.5064 H -76.134218 Z"
           id="path961"
           style="stroke-width:0.445685" /></g></clipPath><clipPath
       clipPathUnits="userSpaceOnUse"
       id="clipPath965"><g
         id="g969"><path
           d="M -76.134218,-0.35069718 H 369.55094 V 209.5064 H -76.134218 Z"
           id="path967"
           style="stroke-width:0.445685" /></g></clipPath><clipPath
       clipPathUnits="userSpaceOnUse"
       id="clipPath971"><g
         id="g975"><path
           d="M -76.134218,-0.35069718 H 369.55094 V 209.5064 H -76.134218 Z"
           id="path973"
           style="stroke-width:0.445685" /></g></clipPath><clipPath
       clipPathUnits="userSpaceOnUse"
       id="clipPath977"><g
         id="g981"
         transform="matrix(2.2437364,0,0,-2.2437364,-425.76378,330.14124)"><path
           d="M -76.134218,-0.35069718 H 369.55094 V 209.5064 H -76.134218 Z"
           id="path979"
           style="stroke-width:0.445685" /></g></clipPath><clipPath
       clipPathUnits="userSpaceOnUse"
       id="clipPath983"><g
         id="g987"
         transform="matrix(2.2437364,0,0,-2.2437364,-383.4552,341.88583)"><path
           d="M -76.134218,-0.35069718 H 369.55094 V 209.5064 H -76.134218 Z"
           id="path985"
           style="stroke-width:0.445685" /></g></clipPath><clipPath
       clipPathUnits="userSpaceOnUse"
       id="clipPath989"><g
         id="g993"
         transform="matrix(2.2437364,0,0,-2.2437364,-362.41898,341.88583)"><path
           d="M -76.134218,-0.35069718 H 369.55094 V 209.5064 H -76.134218 Z"
           id="path991"
           style="stroke-width:0.445685" /></g></clipPath><clipPath
       clipPathUnits="userSpaceOnUse"
       id="clipPath995"><g
         id="g999"
         transform="matrix(2.2437364,0,0,-2.2437364,-341.49228,341.88583)"><path
           d="M -76.134218,-0.35069718 H 369.55094 V 209.5064 H -76.134218 Z"
           id="path997"
           style="stroke-width:0.445685" /></g></clipPath><clipPath
       clipPathUnits="userSpaceOnUse"
       id="clipPath1001"><g
         id="g1005"
         transform="matrix(2.2437364,0,0,-2.2437364,-309.86968,330.14124)"><path
           d="M -76.134218,-0.35069718 H 369.55094 V 209.5064 H -76.134218 Z"
           id="path1003"
           style="stroke-width:0.445685" /></g></clipPath><clipPath
       clipPathUnits="userSpaceOnUse"
       id="clipPath1007"><g
         id="g1011"
         transform="matrix(2.2437364,0,0,-2.2437364,-275.67048,330.22713)"><path
           d="M -76.134218,-0.35069718 H 369.55094 V 209.5064 H -76.134218 Z"
           id="path1009"
           style="stroke-width:0.445685" /></g></clipPath><clipPath
       clipPathUnits="userSpaceOnUse"
       id="clipPath1013"><g
         id="g1017"
         transform="matrix(2.2437364,0,0,-2.2437364,-244.57718,330.18423)"><path
           d="M -76.134218,-0.35069718 H 369.55094 V 209.5064 H -76.134218 Z"
           id="path1015"
           style="stroke-width:0.445685" /></g></clipPath><clipPath
       clipPathUnits="userSpaceOnUse"
       id="clipPath1019"><g
         id="g1023"
         transform="matrix(2.2437364,0,0,-2.2437364,-555.879,290.90192)"><path
           d="M -76.134218,-0.35069718 H 369.55094 V 209.5064 H -76.134218 Z"
           id="path1021"
           style="stroke-width:0.445685" /></g></clipPath><clipPath
       clipPathUnits="userSpaceOnUse"
       id="clipPath1025"><g
         id="g1029"
         transform="matrix(2.2437364,0,0,-2.2437364,-508.14849,294.33993)"><path
           d="M -76.134218,-0.35069718 H 369.55094 V 209.5064 H -76.134218 Z"
           id="path1027"
           style="stroke-width:0.445685" /></g></clipPath><clipPath
       clipPathUnits="userSpaceOnUse"
       id="clipPath1031"><g
         id="g1035"
         transform="matrix(2.2437364,0,0,-2.2437364,-449.61039,301.19203)"><path
           d="M -76.134218,-0.35069718 H 369.55094 V 209.5064 H -76.134218 Z"
           id="path1033"
           style="stroke-width:0.445685" /></g></clipPath><clipPath
       clipPathUnits="userSpaceOnUse"
       id="clipPath1037"><g
         id="g1041"
         transform="matrix(2.2437364,0,0,-2.2437364,-420.71098,291.05582)"><path
           d="M -76.134218,-0.35069718 H 369.55094 V 209.5064 H -76.134218 Z"
           id="path1039"
           style="stroke-width:0.445685" /></g></clipPath><clipPath
       clipPathUnits="userSpaceOnUse"
       id="clipPath1043"><g
         id="g1047"
         transform="matrix(2.2437364,0,0,-2.2437364,-355.65238,303.38583)"><path
           d="M -76.134218,-0.35069718 H 369.55094 V 209.5064 H -76.134218 Z"
           id="path1045"
           style="stroke-width:0.445685" /></g></clipPath><clipPath
       clipPathUnits="userSpaceOnUse"
       id="clipPath1049"><g
         id="g1053"
         transform="matrix(2.2437364,0,0,-2.2437364,-337.08109,291.05582)"><path
           d="M -76.134218,-0.35069718 H 369.55094 V 209.5064 H -76.134218 Z"
           id="path1051"
           style="stroke-width:0.445685" /></g></clipPath><clipPath
       clipPathUnits="userSpaceOnUse"
       id="clipPath1055"><g
         id="g1059"
         transform="matrix(2.2437364,0,0,-2.2437364,-307.24469,290.90192)"><path
           d="M -76.134218,-0.35069718 H 369.55094 V 209.5064 H -76.134218 Z"
           id="path1057"
           style="stroke-width:0.445685" /></g></clipPath><clipPath
       clipPathUnits="userSpaceOnUse"
       id="clipPath1061"><g
         id="g1065"
         transform="matrix(2.2437364,0,0,-2.2437364,-241.84139,294.66072)"><path
           d="M -76.134218,-0.35069718 H 369.55094 V 209.5064 H -76.134218 Z"
           id="path1063"
           style="stroke-width:0.445685" /></g></clipPath><clipPath
       clipPathUnits="userSpaceOnUse"
       id="clipPath1067"><g
         id="g1071"
         transform="matrix(2.2437364,0,0,-2.2437364,-217.48939,294.33993)"><path
           d="M -76.134218,-0.35069718 H 369.55094 V 209.5064 H -76.134218 Z"
           id="path1069"
           style="stroke-width:0.445685" /></g></clipPath></defs><g
     inkscape:label="Layer 1"
     inkscape:groupmode="layer"
     id="layer1"><g
       id="g1242"
       transform="matrix(1.2988523,0,0,1.2988523,-43.84407,-31.253337)"><g
         id="g1157"
         style="display:inline"
         transform="matrix(1.4890801,0,0,1.4890801,-26.317757,-49.386819)"><path
           d="m 114.79998,63.289578 h 6.51413 v -6.507449 h -6.51413 z"
           style="fill:#000000;fill-opacity:1;fill-rule:nonzero;stroke:none;stroke-width:0.445685"
           id="path119"
           clip-path="url(#clipPath959)" /><path
           d="m 122.98543,63.289578 h 6.50968 v -6.507449 h -6.50968 z"
           style="fill:#000000;fill-opacity:1;fill-rule:nonzero;stroke:none;stroke-width:0.445685"
           id="path121"
           clip-path="url(#clipPath953)" /><path
           d="m 114.79998,71.473249 h 6.51413 V 64.9658 h -6.51413 z"
           style="fill:#000000;fill-opacity:1;fill-rule:nonzero;stroke:none;stroke-width:0.445685"
           id="path123"
           clip-path="url(#clipPath947)" /><path
           d="m 122.98543,71.473249 h 6.50968 V 64.9658 h -6.50968 z"
           style="fill:#000000;fill-opacity:1;fill-rule:nonzero;stroke:none;stroke-width:0.445685"
           id="path125"
           clip-path="url(#clipPath941)" /><path
           d="m 163.90379,63.289578 h 6.51413 v -6.507449 h -6.51413 z"
           style="fill:#000000;fill-opacity:1;fill-rule:nonzero;stroke:none;stroke-width:0.445685"
           id="path127"
           clip-path="url(#clipPath935)" /><path
           d="m 178.59892,56.782575 h -6.50923 v 6.507449 h 6.50923 z"
           style="fill:#000000;fill-opacity:1;fill-rule:nonzero;stroke:none;stroke-width:0.445685"
           id="path129"
           clip-path="url(#clipPath929)" /><path
           d="m 163.90379,71.473249 h 6.51413 V 64.9658 h -6.51413 z"
           style="fill:#000000;fill-opacity:1;fill-rule:nonzero;stroke:none;stroke-width:0.445685"
           id="path131"
           clip-path="url(#clipPath923)" /><path
           d="m 178.59892,64.9658 h -6.50923 v 6.507449 h 6.50923 z"
           style="fill:#000000;fill-opacity:1;fill-rule:nonzero;stroke:none;stroke-width:0.445685"
           id="path133"
           clip-path="url(#clipPath917)" /><path
           d="m 139.35188,63.289578 h 6.51414 v -6.507449 h -6.51414 z"
           style="fill:#000000;fill-opacity:1;fill-rule:nonzero;stroke:none;stroke-width:0.445685"
           id="path135"
           clip-path="url(#clipPath911)" /><path
           d="m 147.53689,63.289578 h 6.50968 v -6.507449 h -6.50968 z"
           style="fill:#000000;fill-opacity:1;fill-rule:nonzero;stroke:none;stroke-width:0.445685"
           id="path137"
           clip-path="url(#clipPath905)" /><path
           d="m 139.35188,71.473249 h 6.51414 V 64.9658 h -6.51414 z"
           style="fill:#000000;fill-opacity:1;fill-rule:nonzero;stroke:none;stroke-width:0.445685"
           id="path139"
           clip-path="url(#clipPath899)" /><path
           d="m 147.53689,71.473249 h 6.50968 V 64.9658 h -6.50968 z"
           style="fill:#000000;fill-opacity:1;fill-rule:nonzero;stroke:none;stroke-width:0.445685"
           id="path141"
           clip-path="url(#clipPath893)" /><path
           d="m 139.35188,79.658257 h 6.51414 v -6.507449 h -6.51414 z"
           style="fill:#000000;fill-opacity:1;fill-rule:nonzero;stroke:none;stroke-width:0.445685"
           id="path143"
           clip-path="url(#clipPath887)" /><path
           d="m 147.53689,79.658257 h 6.50968 v -6.507449 h -6.50968 z"
           style="fill:#000000;fill-opacity:1;fill-rule:nonzero;stroke:none;stroke-width:0.445685"
           id="path145"
           clip-path="url(#clipPath881)" /><path
           d="m 155.72279,79.658257 h 6.50968 v -6.507449 h -6.50968 z"
           style="fill:#000000;fill-opacity:1;fill-rule:nonzero;stroke:none;stroke-width:0.445685"
           id="path147"
           clip-path="url(#clipPath875)" /><path
           d="m 163.90379,79.658257 h 6.51413 v -6.507449 h -6.51413 z"
           style="fill:#000000;fill-opacity:1;fill-rule:nonzero;stroke:none;stroke-width:0.445685"
           id="path149"
           clip-path="url(#clipPath869)" /><path
           d="m 122.98543,79.658257 h 6.50968 v -6.507449 h -6.50968 z"
           style="fill:#000000;fill-opacity:1;fill-rule:nonzero;stroke:none;stroke-width:0.445685"
           id="path151"
           clip-path="url(#clipPath863)" /><path
           d="m 131.17089,79.658257 h 6.50967 v -6.507449 h -6.50967 z"
           style="fill:#000000;fill-opacity:1;fill-rule:nonzero;stroke:none;stroke-width:0.445685"
           id="path153"
           clip-path="url(#clipPath857)" /><path
           d="m 122.98543,87.841928 h 6.50968 v -6.507449 h -6.50968 z"
           style="fill:#000000;fill-opacity:1;fill-rule:nonzero;stroke:none;stroke-width:0.445685"
           id="path155"
           clip-path="url(#clipPath851)" /><path
           d="m 131.17089,87.841928 h 6.50967 v -6.507449 h -6.50967 z"
           style="fill:#000000;fill-opacity:1;fill-rule:nonzero;stroke:none;stroke-width:0.445685"
           id="path157"
           clip-path="url(#clipPath845)" /><path
           d="m 139.35188,87.841928 h 6.51414 v -6.507449 h -6.51414 z"
           style="fill:#000000;fill-opacity:1;fill-rule:nonzero;stroke:none;stroke-width:0.445685"
           id="path159"
           clip-path="url(#clipPath839)" /><path
           d="m 147.53689,87.841928 h 6.50968 v -6.507449 h -6.50968 z"
           style="fill:#000000;fill-opacity:1;fill-rule:nonzero;stroke:none;stroke-width:0.445685"
           id="path161"
           clip-path="url(#clipPath833)" /><path
           d="m 155.72279,87.841928 h 6.50968 v -6.507449 h -6.50968 z"
           style="fill:#000000;fill-opacity:1;fill-rule:nonzero;stroke:none;stroke-width:0.445685"
           id="path163"
           clip-path="url(#clipPath827)" /><path
           d="m 163.90379,87.841928 h 6.51413 v -6.507449 h -6.51413 z"
           style="fill:#000000;fill-opacity:1;fill-rule:nonzero;stroke:none;stroke-width:0.445685"
           id="path165"
           clip-path="url(#clipPath821)" /><path
           d="m 122.98543,96.025153 h 6.50968 v -6.50522 h -6.50968 z"
           style="fill:#000000;fill-opacity:1;fill-rule:nonzero;stroke:none;stroke-width:0.445685"
           id="path167"
           clip-path="url(#clipPath815)" /><path
           d="m 131.17089,96.025153 h 6.50967 v -6.50522 h -6.50967 z"
           style="fill:#000000;fill-opacity:1;fill-rule:nonzero;stroke:none;stroke-width:0.445685"
           id="path169"
           clip-path="url(#clipPath809)" /><path
           d="m 139.35188,96.025153 h 6.51414 v -6.50522 h -6.51414 z"
           style="fill:#000000;fill-opacity:1;fill-rule:nonzero;stroke:none;stroke-width:0.445685"
           id="path171"
           clip-path="url(#clipPath803)" /><path
           d="m 147.53689,96.025153 h 6.50968 v -6.50522 h -6.50968 z"
           style="fill:#000000;fill-opacity:1;fill-rule:nonzero;stroke:none;stroke-width:0.445685"
           id="path173"
           clip-path="url(#clipPath797)" /><path
           d="m 155.72279,96.025153 h 6.50968 v -6.50522 h -6.50968 z"
           style="fill:#000000;fill-opacity:1;fill-rule:nonzero;stroke:none;stroke-width:0.445685"
           id="path175"
           clip-path="url(#clipPath791)" /><path
           d="m 163.90379,96.025153 h 6.51413 v -6.50522 h -6.51413 z"
           style="fill:#000000;fill-opacity:1;fill-rule:nonzero;stroke:none;stroke-width:0.445685"
           id="path177"
           clip-path="url(#clipPath785)" /><path
           d="m 122.98543,104.21061 h 6.50968 v -6.507452 h -6.50968 z"
           style="fill:#000000;fill-opacity:1;fill-rule:nonzero;stroke:none;stroke-width:0.445685"
           id="path179"
           clip-path="url(#clipPath779)" /><path
           d="m 131.17089,104.21061 h 6.50967 v -6.507452 h -6.50967 z"
           style="fill:#000000;fill-opacity:1;fill-rule:nonzero;stroke:none;stroke-width:0.445685"
           id="path181"
           clip-path="url(#clipPath773)" /><path
           d="m 155.72279,104.21061 h 6.50968 v -6.507452 h -6.50968 z"
           style="fill:#000000;fill-opacity:1;fill-rule:nonzero;stroke:none;stroke-width:0.445685"
           id="path183"
           clip-path="url(#clipPath767)" /><path
           d="m 163.90379,104.21061 h 6.51413 v -6.507452 h -6.51413 z"
           style="fill:#000000;fill-opacity:1;fill-rule:nonzero;stroke:none;stroke-width:0.445685"
           id="path185"
           clip-path="url(#clipPath761)" /><path
           d="m 122.98543,112.39383 h 6.50968 v -6.50745 h -6.50968 z"
           style="fill:#000000;fill-opacity:1;fill-rule:nonzero;stroke:none;stroke-width:0.445685"
           id="path187"
           clip-path="url(#clipPath755)" /><path
           d="m 131.17089,112.39383 h 6.50967 v -6.50745 h -6.50967 z"
           style="fill:#000000;fill-opacity:1;fill-rule:nonzero;stroke:none;stroke-width:0.445685"
           id="path189"
           clip-path="url(#clipPath749)" /><path
           d="m 155.72279,112.39383 h 6.50968 v -6.50745 h -6.50968 z"
           style="fill:#000000;fill-opacity:1;fill-rule:nonzero;stroke:none;stroke-width:0.445685"
           id="path191"
           clip-path="url(#clipPath743)" /><path
           d="m 163.90379,112.39383 h 6.51413 v -6.50745 h -6.51413 z"
           style="fill:#000000;fill-opacity:1;fill-rule:nonzero;stroke:none;stroke-width:0.445685"
           id="path193"
           clip-path="url(#clipPath737)" /><path
           d="m 122.98543,120.57661 h 6.50968 v -6.50522 h -6.50968 z"
           style="fill:#000000;fill-opacity:1;fill-rule:nonzero;stroke:none;stroke-width:0.445685"
           id="path195"
           clip-path="url(#clipPath731)" /><path
           d="m 114.79998,120.57661 h 6.51413 v -6.50522 h -6.51413 z"
           style="fill:#000000;fill-opacity:1;fill-rule:nonzero;stroke:none;stroke-width:0.445685"
           id="path197"
           clip-path="url(#clipPath725)" /><path
           d="m 131.17089,120.57661 h 6.50967 v -6.50522 h -6.50967 z"
           style="fill:#000000;fill-opacity:1;fill-rule:nonzero;stroke:none;stroke-width:0.445685"
           id="path199"
           clip-path="url(#clipPath719)" /><path
           d="m 155.72279,120.57661 h 6.50968 v -6.50522 h -6.50968 z"
           style="fill:#000000;fill-opacity:1;fill-rule:nonzero;stroke:none;stroke-width:0.445685"
           id="path201"
           clip-path="url(#clipPath713)" /><path
           d="m 163.90379,120.57661 h 6.51413 v -6.50522 h -6.51413 z"
           style="fill:#000000;fill-opacity:1;fill-rule:nonzero;stroke:none;stroke-width:0.445685"
           id="path203"
           clip-path="url(#clipPath707)" /><path
           d="m 172.10707,120.57661 h 6.50923 v -6.50522 h -6.50923 z"
           style="fill:#000000;fill-opacity:1;fill-rule:nonzero;stroke:none;stroke-width:0.445685"
           id="path205"
           clip-path="url(#clipPath701)" /></g><g
         id="g1089"
         style="display:inline"
         transform="matrix(1.4890801,0,0,1.4890801,-26.317757,-49.386819)"><g
           id="g87"
           transform="matrix(0.44568516,0,0,-0.44568516,109.00442,147.15821)"
           clip-path="url(#clipPath1013)"><path
             d="m 0,0 h -7.431 v -7.924 h 8.023 c 1.01,0 1.75,0.203 2.218,0.616 0.456,0.407 0.69,1.054 0.69,1.929 v 2.729 c 0,0.912 -0.283,1.584 -0.85,2.009 C 2.083,-0.216 1.208,0 0,0 M 1.455,3.827 C 3.821,3.827 5.546,3.414 6.618,2.582 7.703,1.75 8.245,0.431 8.245,-1.387 v -5.342 c 0,-1.719 -0.432,-2.982 -1.294,-3.777 -0.863,-0.795 -2.231,-1.196 -4.117,-1.196 h -15.01 V 3.827 Z"
             style="fill:#c10000;fill-opacity:1;fill-rule:nonzero;stroke:none"
             id="path89" /></g><g
           id="g91"
           transform="matrix(0.44568516,0,0,-0.44568516,122.86224,147.17733)"
           clip-path="url(#clipPath1007)"><path
             d="M 0,0 H -7.542 V -3.796 H 0 c 0.641,0 1.084,0.148 1.331,0.443 0.259,0.296 0.382,0.832 0.382,1.603 0,0.61 -0.135,1.06 -0.406,1.337 C 1.035,-0.136 0.604,0 0,0 M 0.185,3.87 C 2.637,3.87 4.313,3.506 5.213,2.779 6.101,2.045 6.544,0.714 6.544,-1.22 6.544,-2.558 6.347,-3.556 5.953,-4.209 5.546,-4.868 4.893,-5.306 3.956,-5.527 4.782,-5.719 5.386,-6.063 5.805,-6.557 6.211,-7.049 6.421,-7.69 6.421,-8.479 v -3.18 H 1.676 v 2.367 c 0,0.616 -0.148,1.035 -0.431,1.263 -0.296,0.228 -0.863,0.345 -1.713,0.345 h -7.074 v -3.975 h -4.757 V 3.87 Z"
             style="fill:#c10000;fill-opacity:1;fill-rule:nonzero;stroke:none"
             id="path93" /></g><g
           id="g95"
           transform="matrix(0.44568516,0,0,-0.44568516,138.10432,147.13905)"
           clip-path="url(#clipPath1001)"><path
             d="M 0,0 H -12.238 V -2.348 H -0.715 V -5.613 H -12.238 V -7.992 H 0.185 v -3.753 H -16.97 V 3.784 H 0 Z"
             style="fill:#c10000;fill-opacity:1;fill-rule:nonzero;stroke:none"
             id="path97" /></g><g
           id="g99"
           transform="matrix(0.44568516,0,0,-0.44568516,152.19804,152.37344)"
           clip-path="url(#clipPath995)"><path
             d="m 0,0 h -6.95 l -9.305,11.295 V 0 H -21 v 15.528 h 7.025 L -4.72,4.141 V 15.528 H 0 Z"
             style="fill:#c10000;fill-opacity:1;fill-rule:nonzero;stroke:none"
             id="path101" /></g><g
           id="g103"
           transform="matrix(0.44568516,0,0,-0.44568516,161.52476,152.37344)"
           clip-path="url(#clipPath989)"><path
             d="m 0,0 h -4.732 v 11.726 h -6.508 v 3.802 H 6.494 V 11.726 H 0 Z"
             style="fill:#c10000;fill-opacity:1;fill-rule:nonzero;stroke:none"
             id="path105" /></g><g
           id="g107"
           transform="matrix(0.44568516,0,0,-0.44568516,170.90029,152.37344)"
           clip-path="url(#clipPath983)"><path
             d="M 0,0 H -4.744 V 15.528 H 0 V 9.822 h 9.712 v 5.706 h 4.769 V 0 H 9.712 V 6.07 H 0 Z"
             style="fill:#c10000;fill-opacity:1;fill-rule:nonzero;stroke:none"
             id="path109" /></g><g
           id="g111"
           transform="matrix(0.44568516,0,0,-0.44568516,189.7566,147.13905)"
           clip-path="url(#clipPath977)"><path
             d="M 0,0 H -12.238 V -2.348 H -0.715 V -5.613 H -12.238 V -7.992 H 0.185 v -3.753 H -16.971 V 3.784 H 0 Z"
             style="fill:#c10000;fill-opacity:1;fill-rule:nonzero;stroke:none"
             id="path113" /></g><path
           d="M 96.433293,149.36342 H 45.669308 v -0.90073 h 50.763985 z"
           style="fill:#c10000;fill-opacity:1;fill-rule:nonzero;stroke:none;stroke-width:0.445685"
           id="path115"
           clip-path="url(#clipPath971)" /><path
           d="m 247.74697,149.36342 h -50.76354 v -0.90073 h 50.76354 z"
           style="fill:#c10000;fill-opacity:1;fill-rule:nonzero;stroke:none;stroke-width:0.445685"
           id="path117"
           clip-path="url(#clipPath965)" /></g><path
         style="font-size:46.6667px;font-family:'Green Mountain 3';-inkscape-font-specification:'Green Mountain 3, ';white-space:pre;fill-opacity:0.972222;stroke-width:1.37807"
         d="m 43.450945,138.94801 h 9.964504 l 7.173754,12.44988 7.327855,-12.44988 h 9.964499 v 19.36827 h -6.266338 v -14.12706 l -8.543449,14.12706 h -4.948009 l -8.406478,-14.19157 v 14.19157 h -6.266338 z m 48.829495,0 h 7.96133 l 11.35131,19.36827 h -7.10527 l -1.91756,-3.32212 H 89.883478 l -1.849084,3.32212 h -7.105269 z m 0.102728,11.53065 h 7.636022 l -3.732407,-6.61198 z m 29.242902,-11.53065 v 7.24093 h 2.79075 l 8.02981,-7.24093 h 8.95436 l -11.55677,9.70832 12.9607,9.65995 h -9.12556 l -9.39952,-7.12804 h -2.65377 v 7.12804 h -6.26634 v -19.36827 z m 23.16491,0 h 22.61703 v 4.5155 h -16.35069 v 2.64479 h 15.44327 v 4.19297 h -15.44327 v 3.4995 h 16.53902 v 4.51551 h -22.80536 z m 45.38814,0 q 1.02727,0 1.40393,0.0323 0.39379,0.0161 1.14712,0.0968 2.87635,0.27416 3.92074,1.96747 0.39379,0.64507 0.58212,1.35466 0.15409,0.69345 0.23969,1.41915 0.0856,0.70958 0.0856,1.46754 0,2.40289 -0.68485,3.59627 -0.68484,1.19338 -3.25301,1.91909 2.58529,0.67732 3.20165,1.66106 0.63348,0.96761 0.63348,3.48338 v 2.37064 h -6.26634 l -0.0514,-1.79007 q 0,-1.82233 -0.46227,-2.38677 -0.51364,-0.62894 -2.4312,-0.62894 H 178.297 v 4.80578 h -6.26634 V 138.9481 Z m -11.88207,4.9993 v 4.56388 h 8.76602 q 0.29106,0 0.94166,-0.0161 0.66773,-0.0161 1.04439,-0.0161 0.39379,0 0.70197,-0.0484 0.3253,-0.0484 0.59924,-0.17739 0.94166,-0.38705 0.94166,-2.09648 0,-1.16114 -0.6506,-1.72557 -0.49651,-0.43542 -1.90045,-0.43542 l -1.83196,-0.0484 z m 29.0717,7.80536 q 0,1.53205 0.83894,1.96747 0.30817,0.14514 0.87318,0.24191 0.58212,0.0806 1.48953,0.0806 l 1.7806,0.0484 h 4.58847 1.66075 q 1.90044,0 1.90044,-1.51592 0,-1.27402 -1.3012,-1.46754 l -1.26697,-0.0806 -1.26696,-0.0484 -3.76665,-0.14514 -1.83196,-0.0968 -3.15029,-0.16127 q -0.73621,0 -1.33545,-0.0323 -0.58212,-0.0484 -1.57514,-0.22578 -2.65379,-0.40317 -3.27015,-2.49965 -0.35954,-1.16113 -0.35954,-2.51578 0,-2.45127 0.47939,-3.56402 0.78757,-1.83845 2.63666,-2.41901 1.84908,-0.5967 7.65315,-0.5967 1.06151,0 3.03044,0.0645 1.96893,0.0645 2.87635,0.0645 1.93469,0 3.37286,0.25804 1.4553,0.25802 2.41409,0.70957 1.09575,0.51606 1.69499,1.5643 0.59924,1.04824 0.59924,2.62866 v 1.30628 h -6.26633 l -0.10273,-0.70959 q -0.20546,-0.95147 -1.07864,-1.24175 -0.0514,-0.0161 -0.41091,-0.0645 -0.68484,-0.0968 -1.36968,-0.0968 l -1.695,-0.0645 h -3.66392 l -1.62651,0.0484 q -0.66773,0 -1.23272,0.1774 -1.04439,0.22577 -1.04439,1.33851 0,1.12888 1.26696,1.43529 0.25682,0.0484 0.66772,0.0968 0.41091,0.0484 0.7191,0.0484 l 1.6265,0.0323 5.76983,0.1774 3.35574,0.12901 q 0.66772,0 1.31833,0.12902 0.66772,0.11288 1.33545,0.32253 3.06468,0.96761 3.06468,5.56374 0,5.07994 -4.96513,5.69275 -0.30818,0.0323 -0.87317,0.0806 -0.56501,0.0484 -0.92455,0.0484 -0.94166,0 -2.4312,0.0323 -1.47242,0.0484 -1.72924,0.0484 -0.30817,0 -2.85923,-0.0806 -2.53393,-0.0645 -3.92074,-0.0645 -0.58212,0 -1.16423,-0.0323 -0.58212,-0.0161 -1.16424,-0.0806 -1.30121,0 -2.3456,-0.35479 -1.02727,-0.35479 -1.79772,-0.96761 -0.63348,-0.51605 -1.02727,-1.49979 -0.39378,-0.99986 -0.39378,-2.35451 l -0.0684,-1.35465 z m 38.21439,-12.80466 2.60241,0.0323 q 0.78757,0 1.50666,0.0968 0.71908,0.0806 1.50666,0.25804 2.84211,0.62894 3.5612,3.35436 0.42803,1.59655 0.42803,3.41889 0,5.2412 -2.49969,6.67648 -0.9759,0.58057 -2.46545,0.75796 -0.49651,0.0484 -0.99302,0.0806 -0.47939,0.0323 -0.99303,0.0323 h -11.29995 v 4.66064 h -6.26634 v -19.36827 z m -8.64618,4.9993 v 4.70902 h 7.89284 l 1.95181,-0.0323 q 1.31833,0 1.72924,-0.67733 0.41091,-0.67732 0.41091,-1.79007 0,-1.03211 -0.46227,-1.58042 -0.44515,-0.56444 -1.33545,-0.56444 l -2.6709,-0.0645 z m 30.04759,-4.9993 h 7.96133 l 11.35132,19.36827 h -7.10528 l -1.91756,-3.32212 h -12.68677 l -1.84908,3.32212 h -7.10528 z m 0.10273,11.53065 h 7.63602 l -3.7324,-6.61198 z m 39.41289,-6.35395 q -0.77045,-0.40317 -2.19151,-0.40317 h -3.81801 q -1.4553,0 -2.22575,0.0161 -0.75333,0.0161 -1.36969,0.0323 -0.94167,0 -1.57515,0.37092 -0.61636,0.35478 -0.87318,1.03211 -0.13697,0.35478 -0.20545,1.03211 -0.0685,0.6612 -0.0685,1.79007 0,2.93508 0.20546,3.74142 0.49651,1.79007 3.11604,1.79007 l 4.14332,0.0161 3.45847,0.0161 q 2.24287,0 2.48256,-1.99973 l 0.0343,-0.70957 h 6.26633 v 0.95148 q 0,2.37063 -0.54787,3.72529 -0.20545,0.61281 -0.71909,1.08049 -1.42106,1.3869 -5.18771,1.72556 -0.77045,0.0645 -1.67786,0.12902 -0.90743,0.0645 -2.14015,0.0645 l -2.41408,0.0161 q -1.38681,0 -2.36272,-0.0161 -0.9759,-0.0161 -1.8662,-0.0323 -0.58212,0 -1.28409,-0.0645 -0.68484,-0.0484 -1.47242,-0.14514 -1.33544,-0.14514 -2.46544,-0.53218 -1.35257,-0.38704 -2.12302,-1.30627 -1.16424,-1.25789 -1.43818,-3.04797 -0.27394,-1.79007 -0.27394,-4.3381 0,-2.64479 0.18834,-4.5155 0,-0.53219 0.11985,-1.03212 0.13697,-0.51605 0.37666,-1.06436 1.07863,-2.72543 4.67407,-3.30599 2.77363,-0.4193 7.61891,-0.4193 h 2.85923 q 5.25619,0 7.39634,0.98374 1.5409,0.70957 2.1915,2.75767 0.27394,0.90311 0.27394,3.51564 h -6.26634 q 0,-1.41915 -0.83894,-1.85457 z m 11.69374,-5.1767 h 22.61702 v 4.5155 h -16.35069 v 2.64479 h 15.44327 v 4.19297 h -15.44327 v 3.4995 h 16.53902 v 4.51551 h -22.80535 z"
         id="text922"
         aria-label="MAKERSPACE" /></g></g></svg>
